<?xml version="1.0" encoding="utf-8"?>
<!-- Generator: Adobe Illustrator 27.5.0, SVG Export Plug-In . SVG Version: 6.00 Build 0)  -->
<svg version="1.1" id="Layer_1" xmlns="http://www.w3.org/2000/svg" xmlns:xlink="http://www.w3.org/1999/xlink" x="0px" y="0px"
	 viewBox="0 0 1500 1500" enable-background="new 0 0 1500 1500" xml:space="preserve">
<g>
	<path stroke="#FFFFFF" stroke-width="20" stroke-miterlimit="10" d="M763.549,1442.345
		c-331.757,7.322-558.726-245.513-583.745-513.466C145.61,562.642,420.866,305.231,722.826,293.134
		c334.932-13.417,575.654,240.402,598.866,522.99C1350.156,1162.662,1081.021,1435.836,763.549,1442.345z M750.068,384.488
		c-255.781-4.224-477.637,211.036-482.126,474.004c-4.467,261.65,205.577,493.146,483.164,492.498
		c269.865-0.63,475.524-218.748,480.643-476.374C1237.403,590.046,998.859,384.002,750.068,384.488z"/>
	<path stroke="#FFFFFF" stroke-width="20" stroke-miterlimit="10" d="M1101.986,377.49
		c-235.579-153.701-469.26-150.459-705.239-0.089c0-7.458-0.58-13.345,0.091-19.085c5.886-50.361,11.624-100.745,18.293-151.004
		c1.724-12.992,6.245-25.669,10.086-38.307c3.58-11.78-0.09-17.843-12.538-17.847c-39.747-0.012-79.494,0.073-119.241,0.152
		c-15.664,0.031-22.413,10.53-22.722,23.593c-0.998,42.243-1.294,84.54-0.041,126.762c0.227,7.642,8.263,15.719,14.078,22.39
		c12.207,14.005,14.82,34.141,7.901,51.368c-5.195,12.933-7.171,27.123-11.454,40.473c-2.002,6.241-4.807,13.255-9.489,17.373
		c-7.686,6.76-13.78,3.966-16.171-6.504c-1.114-4.877-3.653-9.428-5.546-14.127c-2.176,0.132-4.353,0.264-6.529,0.396
		c-1.284,18.65-2.568,37.3-3.851,55.95c-1.521,0.166-3.042,0.332-4.563,0.498c-1.2-4.207-3.249-8.377-3.437-12.628
		c-0.493-11.184-0.238-22.404-0.166-33.609c0.101-15.736,0.002-30.527-10.044-44.963c-10.495-15.08-4.045-34.276,7.232-48.974
		c6.436-8.388,10.191-20.933,10.333-31.671c0.552-41.71-0.875-83.445-1.464-125.173c-0.268-19.011-1.599-20.698-21.089-21.025
		c-29.551-0.496-59.11-0.488-88.662-0.944c-18.02-0.278-29.359-9.518-31.232-24.815c-2.376-19.403,5.455-32.474,23.343-37.365
		c6.77-1.851,14.043-2.606,21.087-2.612c172.252-0.149,344.503-0.148,516.755-0.08c7.106,0.003,14.284,0.43,21.304,1.482
		c16.76,2.511,30.289-1.213,42.472-14.431c19.206-20.839,39.301-20.02,59.075,1.268c10.362,11.155,22.057,15.356,36.905,13.298
		c9.04-1.253,18.263-1.637,27.404-1.642c170.722-0.093,341.444-0.116,512.166,0.062c8.547,0.009,17.397,0.91,25.573,3.253
		c15.667,4.49,23.018,18.109,20.945,36.099c-1.63,14.14-12.411,24.434-27.644,25.803c-7.087,0.637-14.253,0.57-21.382,0.554
		c-87.143-0.203-174.286-0.477-261.429-0.682c-22.876-0.054-24.267,2.305-17.593,23.655c14.785,47.296,22.807,95.805,25.117,145.295
		c0.64,13.714,2.066,27.392,2.735,41.105C1103.585,365.498,1102.616,370.313,1101.986,377.49z"/>
	<path fill="#FFFFFF" stroke="#FFFFFF" stroke-width="10" stroke-miterlimit="10" d="M750.068,384.488
		c248.792-0.486,487.335,205.558,481.681,490.128c-5.119,257.626-210.778,475.744-480.643,476.374
		c-277.587,0.648-487.631-230.848-483.164-492.498C272.431,595.524,494.287,380.264,750.068,384.488z M905.517,824.926
		c29.917-1.74,49.726-8.078,69.846-27.953c34.408-33.989,67.793-69.012,101.582-103.625c6.368-6.523,9.434-13.14,1.617-21.081
		c-8.037-8.164-14.822-6.381-22.169,0.989c-25.151,25.231-50.405,50.363-75.859,75.288c-7.113,6.965-14.777,20.941-25.634,9.847
		c-10.104-10.324,3.785-17.517,10.291-24.307c25.34-26.448,51.02-52.571,76.497-78.888c6.03-6.229,8.117-12.307,0.591-19.647
		c-7.825-7.632-14.31-5.797-21.044,0.742c-4.744,4.606-9.355,9.35-13.992,14.066c-22.849,23.237-45.634,46.536-68.562,69.695
		c-6.259,6.322-14.489,10.779-20.736,2.257c-2.324-3.17,0.9-13.511,4.76-17.586c22.377-23.625,45.654-46.4,68.735-69.355
		c5.035-5.007,11.427-8.9,15.553-14.511c5.537-7.532,6.704-15.925-1.728-23.117c-7.967-6.795-13.857-2.645-19.74,3.226
		c-17.663,17.629-35.346,35.24-53.151,52.724c-11.615,11.406-23.024,23.102-35.508,33.488c-3.096,2.576-10.006,0.574-15.162,0.676
		c1.335-4.881,1.223-11.088,4.266-14.404c10.643-11.597,22.528-22.042,33.656-33.21c16.508-16.568,32.879-33.275,49.095-50.128
		c8.244-8.567,9.654-17.941,0.525-26.802c-9.192-8.922-15.499-1.6-21.776,4.628c-13.74,13.632-27.573,27.172-41.2,40.916
		c-20.084,20.254-40.139,40.54-59.984,61.026c-15.293,15.787-26.566,34.412-27.027,56.528c-0.29,13.893,5.156,27.855,7.483,41.877
		c0.947,5.703,2.984,14.296,0.151,17.003c-10.137,9.688-21.029,20.235-33.7,25.259c-21.394,8.482-43.792,21.657-66.69-0.046
		c-10.377-9.835-25.129-14.968-36.023-24.396c-4.095-3.544-5.85-14.423-3.613-19.891c14.584-35.649,7.578-67.302-17.186-94.854
		c-32.721-36.406-72.748-62.195-120.773-73.616c-23.804-5.661-46.418,0.463-63.187,18.126
		c-16.031,16.886-22.711,37.744-16.616,61.927c12.099,47.999,38.019,87.131,73.923,120.446
		c27.79,25.786,59.405,30.757,94.892,19.737c5.594-1.737,15.262-2.152,18.08,1.108c9.669,11.189,17.258,24.201,25.372,36.691
		c3.542,5.452,5.519,12.169,9.814,16.834c9.655,10.486,8.753,18.985-1.226,28.817c-66.743,65.761-133.29,131.721-199.62,197.897
		c-7.096,7.08-13.19,15.486-18.344,24.115c-8.825,14.773-5.02,28.237,10.707,42.889c13.493,12.571,27.645,14.67,41.35,4.519
		c11.411-8.452,22.361-17.745,32.424-27.76c67.492-67.178,135.053-134.293,201.825-202.181
		c31.14-31.66,66.832-59.865,83.951-103.184c2.335-5.908,6.949-11.988,12.197-15.371c5.207-3.358,12.727-5.159,18.914-4.526
		C884.209,818.94,894.812,822.432,905.517,824.926z M826.365,900.255c-16.462,15.593-31.363,30.008-46.62,44.037
		c-8.239,7.576-7.615,13.06,0.496,21.106c39.34,39.028,77.829,78.911,116.953,118.158c28.357,28.447,56.821,56.813,86.061,84.343
		c14.11,13.284,26.899,12.094,42.87,2.197c25.662-15.904,23.604-45.727,5.732-63.755C964.197,1038.089,896.17,970.2,826.365,900.255
		z"/>
	<path d="M905.517,824.926c-10.705-2.494-21.309-5.986-32.156-7.096c-6.186-0.633-13.706,1.168-18.914,4.526
		c-5.248,3.384-9.862,9.463-12.197,15.371c-17.119,43.32-52.811,71.524-83.951,103.184
		c-66.772,67.888-134.334,135.004-201.825,202.181c-10.062,10.016-21.012,19.309-32.424,27.76
		c-13.706,10.151-27.857,8.052-41.35-4.519c-15.727-14.652-19.531-28.116-10.707-42.889c5.154-8.629,11.248-17.035,18.344-24.115
		c66.331-66.176,132.878-132.136,199.62-197.897c9.979-9.832,10.881-18.331,1.226-28.817c-4.295-4.665-6.272-11.382-9.814-16.834
		c-8.115-12.49-15.704-25.502-25.372-36.691c-2.818-3.261-12.486-2.845-18.08-1.108c-35.487,11.02-67.102,6.049-94.892-19.737
		c-35.904-33.315-61.824-72.447-73.923-120.446c-6.095-24.182,0.585-45.04,16.616-61.927c16.769-17.663,39.382-23.787,63.187-18.126
		c48.025,11.421,88.053,37.21,120.773,73.616c24.764,27.552,31.77,59.205,17.186,94.854c-2.237,5.468-0.482,16.346,3.613,19.891
		c10.894,9.429,25.646,14.561,36.023,24.396c22.898,21.703,45.297,8.528,66.69,0.046c12.67-5.023,23.562-15.57,33.7-25.259
		c2.832-2.707,0.795-11.299-0.151-17.003c-2.327-14.022-7.773-27.984-7.483-41.877c0.461-22.116,11.733-40.741,27.027-56.528
		c19.846-20.486,39.901-40.772,59.984-61.026c13.627-13.743,27.46-27.283,41.2-40.916c6.277-6.229,12.584-13.55,21.776-4.628
		c9.129,8.861,7.719,18.235-0.525,26.802c-16.216,16.853-32.587,33.56-49.095,50.128c-11.128,11.167-23.013,21.613-33.656,33.21
		c-3.043,3.315-2.931,9.523-4.266,14.404c5.156-0.102,12.066,1.9,15.162-0.676c12.484-10.387,23.893-22.082,35.508-33.488
		c17.806-17.485,35.489-35.095,53.151-52.724c5.883-5.871,11.773-10.021,19.74-3.226c8.432,7.191,7.265,15.585,1.728,23.117
		c-4.125,5.612-10.518,9.504-15.553,14.511c-23.08,22.954-46.358,45.73-68.735,69.355c-3.86,4.075-7.083,14.416-4.76,17.586
		c6.247,8.522,14.477,4.065,20.736-2.257c22.928-23.159,45.713-46.458,68.562-69.695c4.637-4.715,9.247-9.459,13.992-14.066
		c6.734-6.539,13.22-8.374,21.044-0.742c7.525,7.34,5.439,13.418-0.591,19.647c-25.477,26.317-51.157,52.44-76.497,78.888
		c-6.506,6.79-20.395,13.983-10.291,24.307c10.857,11.094,18.521-2.882,25.634-9.847c25.454-24.925,50.708-50.057,75.859-75.288
		c7.347-7.37,14.132-9.153,22.169-0.989c7.817,7.94,4.751,14.558-1.617,21.081c-33.79,34.613-67.175,69.636-101.582,103.625
		C955.243,816.848,935.435,823.186,905.517,824.926z M549.667,617.266c-5.93,4.366-9.757,7.184-13.583,10.002
		c3.608,4.237,6.416,9.862,10.959,12.478c22.747,13.095,46.337,24.759,68.799,38.303c8.933,5.386,15.153,15.126,23.776,21.237
		c3.322,2.354,9.89,0.13,14.979-0.007c-0.879-4.82-0.043-11.528-2.925-14.143c-14.671-13.312-29.375-26.977-45.852-37.805
		C588.255,635.787,568.695,627.278,549.667,617.266z"/>
	<path d="M826.365,900.255c69.806,69.945,137.832,137.833,205.492,206.085c17.872,18.029,19.93,47.852-5.732,63.755
		c-15.971,9.898-28.76,11.088-42.87-2.197c-29.239-27.529-57.704-55.896-86.061-84.343
		c-39.124-39.248-77.613-79.131-116.953-118.158c-8.111-8.047-8.735-13.53-0.496-21.106
		C795.001,930.263,809.903,915.848,826.365,900.255z"/>
	<path fill="#FFFFFF" stroke="#FFFFFF" stroke-width="10" stroke-miterlimit="10" d="M549.667,617.266
		c19.028,10.012,38.588,18.521,56.153,30.064c16.477,10.828,31.182,24.492,45.852,37.805c2.882,2.615,2.046,9.323,2.925,14.143
		c-5.089,0.138-11.658,2.361-14.979,0.007c-8.623-6.111-14.843-15.85-23.776-21.237c-22.462-13.544-46.052-25.208-68.799-38.303
		c-4.543-2.615-7.351-8.24-10.959-12.478C539.91,624.45,543.737,621.632,549.667,617.266z"/>
</g>
<g>
</g>
<g>
</g>
<g>
</g>
<g>
</g>
<g>
</g>
<g>
</g>
<g>
</g>
<g>
</g>
<g>
</g>
<g>
</g>
<g>
</g>
<g>
</g>
<g>
</g>
<g>
</g>
<g>
</g>
</svg>
